<svg width="240" height="240" viewBox="0 0 240 240" fill="none" xmlns="http://www.w3.org/2000/svg">
<path d="M209.499 0H30.5247C22.4378 0.00749497 14.6843 3.22365 8.96601 8.94253C3.24772 14.6614 0.0318956 22.4157 0.0244014 30.5034V71.0762L0 71.1945L0.0244014 71.313V209.497C0.0318633 217.584 3.24767 225.339 8.96597 231.058C14.6843 236.776 22.4378 239.993 30.5247 240H209.499C217.586 239.992 225.34 236.776 231.058 231.057C236.776 225.339 239.992 217.584 240 209.497V30.5034C239.992 22.4157 236.776 14.6614 231.058 8.94253C225.34 3.22365 217.586 0.00749497 209.499 0ZM56.998 77.2957V119.333H12.2245V77.2952L56.998 77.2957ZM69.1981 77.2957H113.852V119.333H69.1981V77.2957ZM126.052 77.2957H170.826V119.333H126.052V77.2957ZM183.026 77.2957H227.8V119.333H183.026V77.2957ZM12.2245 131.535H56.998V173.513H12.2245V131.535ZM69.1981 131.535H113.852V173.513H69.1981V131.535ZM113.852 185.714V227.799H69.1981V185.714L113.852 185.714ZM126.052 185.714H170.826V227.799H126.052V185.714ZM126.052 173.513V131.534H170.826V173.512L126.052 173.513ZM183.026 131.535H227.8V173.513H183.026V131.535ZM12.2245 30.5039C12.2298 25.6515 14.1596 20.9994 17.5904 17.5683C21.0212 14.1371 25.6728 12.2072 30.5247 12.2019H209.499C214.351 12.2072 219.003 14.1371 222.434 17.5683C225.865 20.9994 227.794 25.6515 227.8 30.5039V65.0343H12.2245V30.5034V30.5039ZM12.2245 209.497V185.714H56.998V227.799H30.5247C25.6728 227.793 21.0212 225.863 17.5904 222.432C14.1596 219.001 12.2298 214.349 12.2245 209.497V209.497ZM209.499 227.799H183.026V185.714H227.8V209.497C227.794 214.349 225.865 219.001 222.434 222.432C219.003 225.863 214.351 227.793 209.499 227.799V227.799Z" fill="#9E9E9E" fill-opacity="0.1"/>
</svg>
